<?xml version="1.0" standalone="no"?>
<!DOCTYPE svg PUBLIC "-//W3C//DTD SVG 20010904//EN"
 "http://www.w3.org/TR/2001/REC-SVG-20010904/DTD/svg10.dtd">
<svg version="1.0" xmlns="http://www.w3.org/2000/svg"
 width="700.000000pt" height="700.000000pt" viewBox="0 0 700.000000 700.000000"
 preserveAspectRatio="xMidYMid meet">
<metadata>
Created by potrace 1.11, written by Peter Selinger 2001-2013
</metadata>
<g transform="translate(0.000000,700.000000) scale(0.100000,-0.100000)"
fill="#000000" stroke="none">
<path d="M3309 6656 c-2 -2 -40 -7 -84 -10 -44 -3 -89 -7 -100 -10 -11 -2 -45
-7 -75 -11 -30 -4 -64 -9 -75 -11 -10 -2 -36 -6 -56 -9 -72 -11 -280 -65 -404
-105 -245 -80 -514 -204 -722 -334 -87 -53 -287 -196 -343 -243 -138 -117
-193 -168 -291 -268 -170 -175 -403 -480 -456 -595 -3 -8 -9 -17 -12 -20 -21
-18 -154 -283 -206 -409 -42 -102 -103 -270 -110 -301 -1 -8 -11 -42 -21 -75
-24 -82 -66 -268 -78 -350 -4 -22 -8 -53 -11 -70 -3 -16 -7 -52 -10 -80 -3
-27 -9 -75 -12 -105 -8 -65 -7 -511 1 -590 12 -132 22 -205 26 -205 1 0 3 -11
4 -25 2 -14 6 -38 9 -55 4 -16 9 -46 13 -65 7 -44 12 -65 14 -65 2 0 6 -23 13
-63 2 -9 6 -23 11 -30 4 -6 5 -12 2 -12 -3 0 1 -18 9 -40 8 -22 14 -43 14 -45
0 -3 10 -38 22 -78 13 -39 24 -75 25 -79 1 -5 3 -10 4 -13 1 -3 3 -8 5 -12 1
-5 7 -21 13 -36 7 -16 12 -30 12 -32 0 -2 5 -16 12 -32 6 -15 12 -30 12 -33
10 -48 192 -413 224 -448 6 -7 12 -17 12 -22 0 -7 54 -94 77 -126 4 -5 13 -17
18 -26 41 -65 80 -118 87 -118 4 0 8 -5 8 -11 0 -10 90 -126 160 -204 84 -95
352 -355 365 -355 3 0 16 -10 29 -22 40 -39 137 -111 221 -165 28 -18 55 -37
62 -43 7 -5 17 -10 23 -10 6 0 18 -7 27 -16 9 -8 21 -13 28 -10 8 3 16 -2 19
-10 3 -9 10 -13 15 -10 5 4 12 0 15 -6 3 -7 3 -2 0 12 -5 25 -5 25 8 3 9 -15
18 -19 27 -14 11 7 10 11 -5 19 -18 10 -18 11 3 9 12 0 19 -5 17 -9 -7 -11 14
-10 37 3 11 5 16 15 13 21 -4 7 -2 8 5 4 9 -6 9 -11 0 -22 -14 -17 2 -19 19
-2 9 9 12 9 12 0 0 -13 26 -17 33 -4 2 4 2 1 0 -6 -1 -8 3 -12 9 -9 7 2 12 10
11 16 -2 6 2 11 8 11 5 0 7 6 3 13 -6 9 -5 9 8 0 8 -7 18 -10 22 -6 4 4 4 -1
1 -12 -5 -14 -4 -16 2 -7 5 7 16 11 24 9 8 -2 11 -2 6 0 -4 3 -5 9 -2 14 4 5
0 6 -8 3 -9 -3 -13 2 -12 17 1 13 7 25 15 27 8 3 10 0 5 -8 -6 -9 -4 -11 5 -5
10 6 10 11 -3 20 -9 7 -13 15 -9 20 4 4 -3 2 -15 -6 -12 -7 -19 -16 -15 -19
13 -10 14 -42 0 -38 -7 3 -12 15 -12 29 0 13 -5 28 -10 32 -6 5 -1 5 12 2 13
-4 22 -2 22 4 0 6 -6 11 -12 11 -9 0 -8 4 2 10 11 7 11 10 2 10 -7 0 -10 4 -7
10 3 6 -1 7 -10 4 -11 -4 -14 -2 -9 9 3 10 -2 20 -15 26 -21 12 -226 213 -327
322 -176 191 -366 491 -481 759 -38 88 -102 265 -108 300 -2 8 -4 15 -5 15 -1
0 -3 7 -5 15 -2 8 -11 40 -20 70 -8 30 -17 69 -20 85 -3 17 -8 38 -11 47 -6
20 -9 34 -24 128 -6 41 -13 86 -16 100 -25 154 -25 583 0 730 2 14 8 48 12 75
4 28 9 57 10 65 3 16 17 81 19 90 0 3 5 23 10 45 11 55 11 52 29 122 9 34 32
108 52 165 267 769 833 1379 1575 1697 186 80 453 160 619 186 25 4 52 9 61
10 9 2 40 6 70 10 30 3 67 9 84 11 36 6 203 14 305 14 101 0 299 -14 365 -25
60 -10 90 -15 105 -16 17 -2 112 -22 210 -45 65 -15 152 -40 180 -52 8 -3 20
-7 25 -7 6 -1 19 -6 30 -10 11 -4 61 -23 110 -42 107 -42 337 -151 346 -165 3
-5 10 -9 15 -9 5 1 52 -26 104 -59 52 -34 104 -66 115 -73 11 -7 22 -14 25
-17 3 -3 32 -25 65 -49 33 -25 62 -48 63 -53 2 -4 8 -8 13 -8 5 0 17 -8 27
-17 10 -10 36 -33 58 -52 98 -84 236 -224 334 -341 30 -36 63 -72 73 -81 9 -9
17 -21 17 -27 0 -6 4 -12 8 -14 4 -1 23 -23 42 -48 19 -25 38 -47 41 -50 3 -3
12 -19 19 -37 8 -17 18 -29 22 -27 4 3 8 0 8 -6 0 -6 4 -8 10 -5 6 3 7 -1 4
-9 -4 -9 1 -18 10 -22 9 -3 13 -11 9 -18 -4 -6 0 -6 9 2 11 9 18 10 23 2 3 -5
1 -10 -4 -10 -6 0 -11 -4 -11 -8 0 -5 7 -9 15 -9 8 0 12 4 9 9 -3 4 0 8 5 8 6
0 11 5 11 11 0 5 -4 8 -9 4 -5 -3 -13 0 -17 6 -4 8 -3 9 4 5 7 -4 12 -3 12 2
0 6 -7 12 -15 16 -10 3 -15 -1 -15 -11 0 -9 -3 -14 -6 -10 -4 3 -4 13 0 22 4
12 10 14 25 6 14 -8 21 -7 25 2 3 6 3 2 1 -10 -3 -12 0 -25 6 -29 7 -4 9 -3 5
4 -3 6 -3 13 2 16 5 3 9 -1 10 -9 1 -8 3 -22 4 -30 1 -9 5 -12 10 -7 4 4 4 22
-1 40 -6 20 -6 30 0 27 5 -4 9 -15 9 -25 0 -32 17 -31 46 2 24 30 25 30 9 4
-25 -42 -27 -75 -3 -68 16 4 16 6 4 16 -13 10 -12 14 4 35 22 25 26 21 10 -10
-10 -17 -8 -18 14 -9 18 7 26 5 30 -6 6 -16 26 -19 26 -3 0 5 -4 7 -10 4 -5
-3 -10 -2 -10 4 0 5 6 12 13 14 9 4 9 6 0 6 -7 1 -13 10 -13 20 0 14 -6 19
-18 16 -11 -2 -19 3 -19 10 0 14 14 14 35 1 8 -5 18 -3 25 4 7 7 7 10 2 7 -6
-3 -18 1 -28 8 -16 11 -16 13 -2 19 9 3 14 2 11 -2 -3 -5 1 -9 8 -9 14 0 10
43 -5 53 -5 3 -6 -2 -3 -10 3 -9 4 -16 1 -16 -14 0 -14 30 1 42 9 7 13 8 9 1
-5 -7 -1 -10 10 -9 13 2 17 10 15 27 -2 13 -3 32 -3 42 0 10 -5 15 -11 11 -8
-5 -9 -1 -5 10 6 14 3 17 -9 12 -13 -5 -14 -4 -6 7 9 10 8 17 0 25 -7 7 -13
17 -14 24 -1 7 -25 55 -53 107 -28 51 -48 97 -45 102 3 5 0 9 -5 9 -6 0 -11 7
-11 15 0 8 -4 15 -10 15 -5 0 -10 9 -10 19 0 11 -4 21 -9 23 -5 2 -54 71 -109
153 -186 279 -401 523 -627 712 -38 32 -81 68 -95 81 -14 12 -28 22 -31 22 -3
0 -17 10 -30 21 -22 20 -267 183 -334 222 -75 44 -296 152 -393 191 -273 111
-589 193 -850 222 -29 3 -63 8 -75 11 -25 6 -542 14 -548 9z m3277 -2072 c2
-11 -1 -12 -11 -4 -7 6 -21 8 -31 4 -11 -3 -8 1 6 9 27 16 33 15 36 -9z m-43
-147 c3 -7 -3 -13 -14 -14 -12 -1 -16 3 -12 13 6 18 19 18 26 1z m-4483 -3757
c0 -5 -4 -10 -10 -10 -5 0 -10 5 -10 10 0 6 5 10 10 10 6 0 10 -4 10 -10z
m-17 -85 c-3 -9 -8 -14 -10 -11 -3 3 -2 9 2 15 9 16 15 13 8 -4z"/>
<path d="M3764 5441 c-33 -43 -66 -89 -74 -101 -8 -12 -20 -28 -25 -34 -6 -6
-28 -36 -50 -66 -64 -89 -261 -345 -369 -480 -178 -222 -250 -304 -426 -480
-74 -75 -180 -184 -235 -244 -55 -60 -113 -123 -130 -140 -16 -18 -64 -70
-105 -116 -41 -45 -80 -88 -85 -94 -6 -6 -44 -49 -85 -96 -41 -46 -79 -90 -85
-96 -5 -6 -28 -32 -50 -59 -22 -26 -45 -53 -50 -59 -120 -134 -335 -445 -335
-484 0 -6 -3 -12 -8 -14 -14 -6 -99 -192 -112 -243 -29 -120 -33 -159 -33
-285 0 -164 17 -295 57 -450 9 -35 49 -116 76 -157 17 -24 30 -47 30 -50 0
-17 145 -143 206 -180 64 -39 197 -97 248 -110 176 -43 359 -58 501 -41 33 3
81 9 108 12 186 22 438 117 582 221 65 47 151 128 192 182 47 61 40 180 -14
244 -52 61 -142 80 -298 65 -22 -3 -69 -7 -105 -10 -36 -3 -90 -8 -120 -11
-182 -16 -291 -7 -470 39 -99 26 -191 86 -240 157 -72 106 -92 278 -50 429 19
66 114 260 147 298 l28 33 429 0 c235 0 429 -1 431 -3 1 -2 5 -23 9 -48 7 -56
15 -101 22 -119 2 -8 7 -30 10 -50 3 -20 7 -43 10 -51 3 -8 8 -26 11 -40 16
-89 101 -326 160 -447 19 -40 34 -76 34 -80 0 -4 6 -15 12 -23 7 -8 21 -31 31
-50 34 -62 127 -204 169 -255 53 -65 190 -201 247 -245 25 -19 47 -37 50 -41
9 -12 195 -115 230 -128 100 -38 116 -43 130 -46 8 -2 45 -11 81 -19 99 -24
140 -28 299 -30 167 -3 338 18 520 64 108 27 318 95 385 125 104 46 211 96
280 133 288 152 510 440 573 743 19 91 9 139 -41 196 -43 49 -77 62 -140 52
-76 -12 -133 -53 -218 -159 -158 -196 -326 -323 -514 -389 -159 -56 -275 -75
-460 -75 -197 1 -303 19 -499 86 -129 44 -217 99 -321 203 -130 130 -213 267
-285 470 -31 88 -81 287 -95 375 -7 46 -11 65 -19 110 -3 14 -8 50 -11 80 -4
30 -8 66 -10 80 -16 97 -19 232 -19 735 0 314 4 647 9 740 16 313 10 426 -32
558 -8 26 -18 47 -23 47 -4 0 -34 -36 -66 -79z m-507 -1698 l-2 -348 -282 0
c-198 0 -283 3 -283 11 0 14 75 152 124 229 85 132 223 290 320 367 25 19 118
86 123 87 0 1 0 -155 0 -346z"/>
<path d="M6435 4390 c-3 -5 -1 -10 4 -10 6 0 11 5 11 10 0 6 -2 10 -4 10 -3 0
-8 -4 -11 -10z"/>
<path d="M2136 613 c-6 -14 -5 -15 5 -6 7 7 10 15 7 18 -3 3 -9 -2 -12 -12z"/>
<path d="M2057 556 c-3 -8 0 -17 7 -19 10 -4 12 1 9 14 -6 23 -9 24 -16 5z"/>
<path d="M1900 528 c-19 -10 -26 -16 -15 -12 49 16 58 17 51 6 -4 -7 -2 -12 3
-12 6 0 11 5 11 10 0 6 7 10 17 10 14 0 15 -2 1 -17 -8 -10 -18 -25 -22 -33
-4 -8 1 -4 13 10 21 26 39 32 58 18 6 -5 14 -5 18 2 3 6 11 8 16 5 5 -4 9 -1
9 5 0 6 -11 8 -24 6 -14 -2 -26 0 -28 6 -7 19 -72 17 -108 -4z"/>
<path d="M2084 520 l-15 -25 20 23 c11 13 23 22 26 22 3 -1 11 1 18 3 6 3 2 4
-11 4 -13 -1 -29 -12 -38 -27z"/>
</g>
</svg>
